<svg id="visual" viewBox="0 0 900 600" width="900" height="600" xmlns="http://www.w3.org/2000/svg" xmlns:xlink="http://www.w3.org/1999/xlink" version="1.1"><rect x="0" y="0" width="900" height="600" fill="#ffffff"></rect><path d="M0 385L21.5 391C43 397 86 409 128.8 419.2C171.7 429.3 214.3 437.7 257.2 445.3C300 453 343 460 385.8 448C428.7 436 471.3 405 514.2 402.7C557 400.3 600 426.7 642.8 434.2C685.7 441.7 728.3 430.3 771.2 424.3C814 418.3 857 417.7 878.5 417.3L900 417L900 601L878.5 601C857 601 814 601 771.2 601C728.3 601 685.7 601 642.8 601C600 601 557 601 514.2 601C471.3 601 428.7 601 385.8 601C343 601 300 601 257.2 601C214.3 601 171.7 601 128.8 601C86 601 43 601 21.5 601L0 601Z" fill="#4facf7"></path><path d="M0 429L21.5 434.3C43 439.7 86 450.3 128.8 451C171.7 451.7 214.3 442.3 257.2 449.5C300 456.7 343 480.3 385.8 489C428.7 497.7 471.3 491.3 514.2 482.2C557 473 600 461 642.8 465.5C685.7 470 728.3 491 771.2 487.5C814 484 857 456 878.5 442L900 428L900 601L878.5 601C857 601 814 601 771.2 601C728.3 601 685.7 601 642.8 601C600 601 557 601 514.2 601C471.3 601 428.7 601 385.8 601C343 601 300 601 257.2 601C214.3 601 171.7 601 128.8 601C86 601 43 601 21.5 601L0 601Z" fill="#1b7ede"></path><path d="M0 546L21.5 539.3C43 532.7 86 519.3 128.8 510.8C171.7 502.3 214.3 498.7 257.2 495.5C300 492.3 343 489.7 385.8 493.5C428.7 497.3 471.3 507.7 514.2 510.8C557 514 600 510 642.8 508.8C685.7 507.7 728.3 509.3 771.2 511.8C814 514.3 857 517.7 878.5 519.3L900 521L900 601L878.5 601C857 601 814 601 771.2 601C728.3 601 685.7 601 642.8 601C600 601 557 601 514.2 601C471.3 601 428.7 601 385.8 601C343 601 300 601 257.2 601C214.3 601 171.7 601 128.8 601C86 601 43 601 21.5 601L0 601Z" fill="#0650be"></path></svg>