<svg id="visual" viewBox="0 0 900 450" width="900" height="450" xmlns="http://www.w3.org/2000/svg" xmlns:xlink="http://www.w3.org/1999/xlink" version="1.1"><path d="M0 293L15 300.7C30 308.3 60 323.7 90 329.5C120 335.3 150 331.7 180 316.7C210 301.7 240 275.3 270 263C300 250.7 330 252.3 360 262.7C390 273 420 292 450 303.3C480 314.7 510 318.3 540 308C570 297.7 600 273.3 630 269.8C660 266.3 690 283.7 720 300C750 316.3 780 331.7 810 323.7C840 315.7 870 284.3 885 268.7L900 253L900 451L885 451C870 451 840 451 810 451C780 451 750 451 720 451C690 451 660 451 630 451C600 451 570 451 540 451C510 451 480 451 450 451C420 451 390 451 360 451C330 451 300 451 270 451C240 451 210 451 180 451C150 451 120 451 90 451C60 451 30 451 15 451L0 451Z" fill="#4facf7"></path><path d="M0 291L15 290C30 289 60 287 90 290.2C120 293.3 150 301.7 180 307.8C210 314 240 318 270 322.8C300 327.7 330 333.3 360 331.5C390 329.7 420 320.3 450 318.3C480 316.3 510 321.7 540 318.7C570 315.7 600 304.3 630 305.7C660 307 690 321 720 326.3C750 331.7 780 328.3 810 333C840 337.7 870 350.3 885 356.7L900 363L900 451L885 451C870 451 840 451 810 451C780 451 750 451 720 451C690 451 660 451 630 451C600 451 570 451 540 451C510 451 480 451 450 451C420 451 390 451 360 451C330 451 300 451 270 451C240 451 210 451 180 451C150 451 120 451 90 451C60 451 30 451 15 451L0 451Z" fill="#3592e6"></path><path d="M0 324L15 333C30 342 60 360 90 369.8C120 379.7 150 381.3 180 376C210 370.7 240 358.3 270 350C300 341.7 330 337.3 360 334C390 330.7 420 328.3 450 327.3C480 326.3 510 326.7 540 330.7C570 334.7 600 342.3 630 341.2C660 340 690 330 720 326.5C750 323 780 326 810 334.7C840 343.3 870 357.7 885 364.8L900 372L900 451L885 451C870 451 840 451 810 451C780 451 750 451 720 451C690 451 660 451 630 451C600 451 570 451 540 451C510 451 480 451 450 451C420 451 390 451 360 451C330 451 300 451 270 451C240 451 210 451 180 451C150 451 120 451 90 451C60 451 30 451 15 451L0 451Z" fill="#1c78d3"></path><path d="M0 412L15 404C30 396 60 380 90 377.3C120 374.7 150 385.3 180 386.8C210 388.3 240 380.7 270 377C300 373.3 330 373.7 360 374.5C390 375.3 420 376.7 450 374.7C480 372.7 510 367.3 540 366.8C570 366.3 600 370.7 630 373.2C660 375.7 690 376.3 720 380C750 383.7 780 390.3 810 393.2C840 396 870 395 885 394.5L900 394L900 451L885 451C870 451 840 451 810 451C780 451 750 451 720 451C690 451 660 451 630 451C600 451 570 451 540 451C510 451 480 451 450 451C420 451 390 451 360 451C330 451 300 451 270 451C240 451 210 451 180 451C150 451 120 451 90 451C60 451 30 451 15 451L0 451Z" fill="#055ebf"></path><path d="M0 437L15 433.2C30 429.3 60 421.7 90 418.7C120 415.7 150 417.3 180 419.2C210 421 240 423 270 418.3C300 413.7 330 402.3 360 399.8C390 397.3 420 403.7 450 411C480 418.3 510 426.7 540 422.8C570 419 600 403 630 395.2C660 387.3 690 387.7 720 395.2C750 402.7 780 417.3 810 422.7C840 428 870 424 885 422L900 420L900 451L885 451C870 451 840 451 810 451C780 451 750 451 720 451C690 451 660 451 630 451C600 451 570 451 540 451C510 451 480 451 450 451C420 451 390 451 360 451C330 451 300 451 270 451C240 451 210 451 180 451C150 451 120 451 90 451C60 451 30 451 15 451L0 451Z" fill="#0044aa"></path></svg>