<svg id="visual" viewBox="0 0 900 450" width="900" height="450" xmlns="http://www.w3.org/2000/svg" xmlns:xlink="http://www.w3.org/1999/xlink" version="1.1"><path d="M0 323L18.8 323.5C37.7 324 75.3 325 112.8 327.7C150.3 330.3 187.7 334.7 225.2 335.3C262.7 336 300.3 333 337.8 335C375.3 337 412.7 344 450.2 346.3C487.7 348.7 525.3 346.3 562.8 340.3C600.3 334.3 637.7 324.7 675.2 323.5C712.7 322.3 750.3 329.7 787.8 331.5C825.3 333.3 862.7 329.7 881.3 327.8L900 326L900 451L881.3 451C862.7 451 825.3 451 787.8 451C750.3 451 712.7 451 675.2 451C637.7 451 600.3 451 562.8 451C525.3 451 487.7 451 450.2 451C412.7 451 375.3 451 337.8 451C300.3 451 262.7 451 225.2 451C187.7 451 150.3 451 112.8 451C75.3 451 37.7 451 18.8 451L0 451Z" fill="#4facf7"></path><path d="M0 358L18.8 360C37.7 362 75.3 366 112.8 362.2C150.3 358.3 187.7 346.7 225.2 341.8C262.7 337 300.3 339 337.8 342.7C375.3 346.3 412.7 351.7 450.2 356.5C487.7 361.3 525.3 365.7 562.8 367.3C600.3 369 637.7 368 675.2 365C712.7 362 750.3 357 787.8 351.5C825.3 346 862.7 340 881.3 337L900 334L900 451L881.3 451C862.7 451 825.3 451 787.8 451C750.3 451 712.7 451 675.2 451C637.7 451 600.3 451 562.8 451C525.3 451 487.7 451 450.2 451C412.7 451 375.3 451 337.8 451C300.3 451 262.7 451 225.2 451C187.7 451 150.3 451 112.8 451C75.3 451 37.7 451 18.8 451L0 451Z" fill="#3a97e9"></path><path d="M0 345L18.8 348.5C37.7 352 75.3 359 112.8 364.5C150.3 370 187.7 374 225.2 377C262.7 380 300.3 382 337.8 377C375.3 372 412.7 360 450.2 355C487.7 350 525.3 352 562.8 358.7C600.3 365.3 637.7 376.7 675.2 380C712.7 383.3 750.3 378.7 787.8 378C825.3 377.3 862.7 380.7 881.3 382.3L900 384L900 451L881.3 451C862.7 451 825.3 451 787.8 451C750.3 451 712.7 451 675.2 451C637.7 451 600.3 451 562.8 451C525.3 451 487.7 451 450.2 451C412.7 451 375.3 451 337.8 451C300.3 451 262.7 451 225.2 451C187.7 451 150.3 451 112.8 451C75.3 451 37.7 451 18.8 451L0 451Z" fill="#2682db"></path><path d="M0 402L18.8 400.8C37.7 399.7 75.3 397.3 112.8 394.3C150.3 391.3 187.7 387.7 225.2 386C262.7 384.3 300.3 384.7 337.8 387C375.3 389.3 412.7 393.7 450.2 394.7C487.7 395.7 525.3 393.3 562.8 388.3C600.3 383.3 637.7 375.7 675.2 377.8C712.7 380 750.3 392 787.8 396.5C825.3 401 862.7 398 881.3 396.5L900 395L900 451L881.3 451C862.7 451 825.3 451 787.8 451C750.3 451 712.7 451 675.2 451C637.7 451 600.3 451 562.8 451C525.3 451 487.7 451 450.2 451C412.7 451 375.3 451 337.8 451C300.3 451 262.7 451 225.2 451C187.7 451 150.3 451 112.8 451C75.3 451 37.7 451 18.8 451L0 451Z" fill="#126ecb"></path><path d="M0 395L18.8 397.3C37.7 399.7 75.3 404.3 112.8 406.2C150.3 408 187.7 407 225.2 406.2C262.7 405.3 300.3 404.7 337.8 406.7C375.3 408.7 412.7 413.3 450.2 412.2C487.7 411 525.3 404 562.8 399.3C600.3 394.7 637.7 392.3 675.2 393C712.7 393.7 750.3 397.3 787.8 397.8C825.3 398.3 862.7 395.7 881.3 394.3L900 393L900 451L881.3 451C862.7 451 825.3 451 787.8 451C750.3 451 712.7 451 675.2 451C637.7 451 600.3 451 562.8 451C525.3 451 487.7 451 450.2 451C412.7 451 375.3 451 337.8 451C300.3 451 262.7 451 225.2 451C187.7 451 150.3 451 112.8 451C75.3 451 37.7 451 18.8 451L0 451Z" fill="#0259bb"></path><path d="M0 413L18.8 416.8C37.7 420.7 75.3 428.3 112.8 431.7C150.3 435 187.7 434 225.2 430.8C262.7 427.7 300.3 422.3 337.8 421.8C375.3 421.3 412.7 425.7 450.2 428C487.7 430.3 525.3 430.7 562.8 429.2C600.3 427.7 637.7 424.3 675.2 423.5C712.7 422.7 750.3 424.3 787.8 425.8C825.3 427.3 862.7 428.7 881.3 429.3L900 430L900 451L881.3 451C862.7 451 825.3 451 787.8 451C750.3 451 712.7 451 675.2 451C637.7 451 600.3 451 562.8 451C525.3 451 487.7 451 450.2 451C412.7 451 375.3 451 337.8 451C300.3 451 262.7 451 225.2 451C187.7 451 150.3 451 112.8 451C75.3 451 37.7 451 18.8 451L0 451Z" fill="#0044aa"></path></svg>