<svg id="visual" viewBox="0 0 900 600" width="900" height="600" xmlns="http://www.w3.org/2000/svg" xmlnsXlink="http://www.w3.org/1999/xlink" version="1.1"><rect x="0" y="0" width="900" height="600" fill="#001220"></rect><path d="M0 436L21.5 428.5C43 421 86 406 128.8 395.2C171.7 384.3 214.3 377.7 257.2 380.8C300 384 343 397 385.8 399.5C428.7 402 471.3 394 514.2 385.5C557 377 600 368 642.8 367.5C685.7 367 728.3 375 771.2 388C814 401 857 419 878.5 428L900 437L900 601L878.5 601C857 601 814 601 771.2 601C728.3 601 685.7 601 642.8 601C600 601 557 601 514.2 601C471.3 601 428.7 601 385.8 601C343 601 300 601 257.2 601C214.3 601 171.7 601 128.8 601C86 601 43 601 21.5 601L0 601Z" fill="#4facf7"></path><path d="M0 448L21.5 444.5C43 441 86 434 128.8 433.8C171.7 433.7 214.3 440.3 257.2 449.8C300 459.3 343 471.7 385.8 473C428.7 474.3 471.3 464.7 514.2 463.7C557 462.7 600 470.3 642.8 478.3C685.7 486.3 728.3 494.7 771.2 486.5C814 478.3 857 453.7 878.5 441.3L900 429L900 601L878.5 601C857 601 814 601 771.2 601C728.3 601 685.7 601 642.8 601C600 601 557 601 514.2 601C471.3 601 428.7 601 385.8 601C343 601 300 601 257.2 601C214.3 601 171.7 601 128.8 601C86 601 43 601 21.5 601L0 601Z" fill="#1b7ede"></path><path d="M0 524L21.5 522.8C43 521.7 86 519.3 128.8 523.2C171.7 527 214.3 537 257.2 543C300 549 343 551 385.8 544.2C428.7 537.3 471.3 521.7 514.2 522.8C557 524 600 542 642.8 539.5C685.7 537 728.3 514 771.2 510.2C814 506.3 857 521.7 878.5 529.3L900 537L900 601L878.5 601C857 601 814 601 771.2 601C728.3 601 685.7 601 642.8 601C600 601 557 601 514.2 601C471.3 601 428.7 601 385.8 601C343 601 300 601 257.2 601C214.3 601 171.7 601 128.8 601C86 601 43 601 21.5 601L0 601Z" fill="#0650be"></path></svg>