<svg id="visual" viewBox="0 0 900 600" width="900" height="600" xmlns="http://www.w3.org/2000/svg" xmlns:xlink="http://www.w3.org/1999/xlink" version="1.1"><rect x="0" y="0" width="900" height="600" fill="#FFFFFF"></rect><path d="M0 491L21.5 493C43 495 86 499 128.8 497.3C171.7 495.7 214.3 488.3 257.2 480.5C300 472.7 343 464.3 385.8 451C428.7 437.7 471.3 419.3 514.2 408C557 396.7 600 392.3 642.8 409.2C685.7 426 728.3 464 771.2 479.3C814 494.7 857 487.3 878.5 483.7L900 480L900 601L878.5 601C857 601 814 601 771.2 601C728.3 601 685.7 601 642.8 601C600 601 557 601 514.2 601C471.3 601 428.7 601 385.8 601C343 601 300 601 257.2 601C214.3 601 171.7 601 128.8 601C86 601 43 601 21.5 601L0 601Z" fill="#5a60f9" stroke-linecap="round" stroke-linejoin="miter"></path></svg>