<svg id="visual" viewBox="0 0 960 540" width="960" height="540" xmlns="http://www.w3.org/2000/svg" xmlns:xlink="http://www.w3.org/1999/xlink" version="1.1"><g transform="translate(465.35584913502777 258.9441048631706)"><path d="M131.4 -163.9C174.2 -149.7 215.5 -116.6 233.1 -73.2C250.8 -29.8 244.7 23.9 228.2 73.9C211.7 124 184.6 170.4 144.8 187.5C105 204.5 52.5 192.3 6.2 183.8C-40.2 175.3 -80.3 170.6 -120.8 153.7C-161.2 136.8 -201.8 107.8 -211.9 70.4C-221.9 33 -201.3 -12.9 -182 -55.1C-162.8 -97.4 -144.9 -136.1 -114.8 -154.4C-84.6 -172.8 -42.3 -170.8 1 -172.1C44.3 -173.5 88.6 -178.1 131.4 -163.9" fill="#6a9eeb"></path></g></svg>