<svg id="visual" viewBox="0 0 900 450" width="900" height="450" xmlns="http://www.w3.org/2000/svg" xmlns:xlink="http://www.w3.org/1999/xlink" version="1.1"><g transform="translate(452.4914363738902 231.52777255096834)"><path d="M98.6 -148.1C116.4 -122.7 111.7 -78.7 124.8 -40.1C137.9 -1.5 168.8 31.7 170.7 64.6C172.5 97.5 145.3 130 112.1 143.7C78.8 157.4 39.4 152.2 -2.4 155.4C-44.1 158.7 -88.2 170.4 -120.2 156.3C-152.2 142.2 -172.2 102.3 -175.3 63.8C-178.5 25.2 -164.8 -11.9 -148.5 -43.9C-132.2 -75.9 -113.1 -102.7 -87.9 -125.7C-62.7 -148.6 -31.3 -167.8 4.5 -174C40.4 -180.2 80.7 -173.4 98.6 -148.1" fill="#045ce0"></path></g></svg>