<svg id="visual" viewBox="0 0 960 540" width="960" height="540" xmlns="http://www.w3.org/2000/svg" xmlns:xlink="http://www.w3.org/1999/xlink" version="1.1"><g transform="translate(535.6680083843819 255.25615919197787)"><path d="M126 -173.6C147.4 -157.9 137.9 -99.8 134.3 -56.5C130.6 -13.2 132.8 15.3 128.1 45.2C123.3 75.1 111.6 106.3 89.1 139C66.6 171.7 33.3 205.8 -1.5 207.9C-36.2 209.9 -72.5 179.8 -115.1 153.6C-157.8 127.5 -206.8 105.3 -231.5 66.5C-256.2 27.6 -256.5 -27.9 -236.8 -73.3C-217 -118.7 -177.3 -154 -134.5 -162.8C-91.7 -171.5 -45.8 -153.8 3.2 -158.2C52.3 -162.7 104.6 -189.3 126 -173.6" fill="#4686e6"></path></g></svg>